<?xml version="1.0" encoding="UTF-8"?>
<svg id="Livello_2" data-name="Livello 2" xmlns="http://www.w3.org/2000/svg" viewBox="0 0 968.1 465">
  <defs>
    <style>
      .cls-1 {
        fill: #fff;
      }
    </style>
  </defs>
  <g id="Livello_1-2" data-name="Livello 1">
    <g>
      <g>
        <path class="cls-1" d="M83.22,5.16s3.33-7.75,9.79-4.25c6.47,3.49,2.53,9.37,2.53,9.37l-13.05,24.19s-3.27,6.52-9.21,3.31c-5.94-3.2-2.47-9.61-2.47-9.61l12.42-23Z"/>
        <path class="cls-1" d="M45.83,33.5s3.31,7.74,9.78,4.25c6.47-3.49,2.53-9.37,2.53-9.37l-13.05-24.19s-3.27-6.52-9.21-3.31c-5.94,3.21-2.48,9.61-2.48,9.61l12.43,23Z"/>
        <path class="cls-1" d="M24.86,49.78s6.46,5.41,10.67-.61c4.2-6.02-1.97-9.5-1.97-9.5l-22.53-15.71s-5.86-4.35-9.72,1.18c-3.86,5.53,2.12,9.7,2.12,9.7l21.44,14.95Z"/>
        <path class="cls-1" d="M117,24.55s6.46-5.41,10.67.61c4.19,6.03-1.98,9.5-1.98,9.5l-22.54,15.71s-5.85,4.35-9.7-1.18c-3.87-5.53,2.12-9.7,2.12-9.7l21.44-14.95Z"/>
      </g>
      <g>
        <path class="cls-1" d="M698.82,341.38c-5.84,0-10.29,1.66-13.34,4.97v44.15c2.89,3.42,6.82,5.13,11.76,5.13,9.53,0,16.28-2.26,20.26-6.79,3.97-4.52,5.96-11.76,5.96-21.72,0-17.17-8.21-25.75-24.64-25.75Z"/>
        <path class="cls-1" d="M792.63,340.75c-6.16,0-11.06,2.42-14.69,7.27-3.63,4.84-5.45,11.61-5.45,20.29,0,18.64,6.71,27.96,20.14,27.96,6.16,0,11.04-2.42,14.65-7.27,3.61-4.84,5.41-11.74,5.41-20.69,0-18.37-6.68-27.56-20.06-27.56Z"/>
        <path class="cls-1" d="M951.93,238.71l-674.86.02c-1.47-7.26-3.82-14.73-7.55-20.63-12.67-19.96-22.6-28.05-39.67-35.01,6.05-2.36,11.92-5.38,17.5-9.06,18.03-11.87,31.11-29.18,36.8-48.75,6.03-20.69,3.22-41.4-7.9-58.31-12.75-19.36-35.33-30.92-60.41-30.92-17.24,0-34.31,5.24-49.37,15.15-18.04,11.87-31.12,29.18-36.81,48.74-5.43,18.65-3.67,37.3,4.87,53.17-5.03-1.52-9.25-2.87-12.3-4.06-4.85-1.89-4.06-8.65-4.06-9.92v-53.97s1.66-22.56-19.43-22.56H30.59c-21.32,0-19.35,22.74-19.35,22.74v82.17c0,11.14,2.78,33.19,21.37,55.69,6.39,7.75,14.13,14.85,23.12,21.22-6.98,11.22-13,22.65-19.22,36.36-5.76,12.73-18.27,45.74-24.44,79.55-3.65,19.96-5.48,45.92-6.35,63.09h0l-.59,11.63v10.92c0,10.49,8.51,19,19,19h924.96c10.49,0,19-8.51,19-19v-191.11c0-8.93-7.24-16.17-16.17-16.17ZM176.15,65.9c29.34-19.31,66.46-14.74,82.89,10.23,16.43,24.97,5.98,60.87-23.36,80.18-29.34,19.31-66.45,14.73-82.88-10.23-16.45-24.97-5.99-60.86,23.35-80.18ZM259.83,447.09c-21.25-.04-42.82-2.25-63.77-5.68-27.48-4.5-56.53-13.56-71.24-39.64-4.64-8.22-6.01-17.43-7.59-26.59-.6-3.48-.81-3.49-2.56-3.49-2.6,0-4.34,9.77-4.34,16.22,0,14.39-.35,27.15-.35,52.73,0,6.74-5.56,6.35-5.56,6.35H30.04c-6.19,0-5.62-6.36-5.62-6.36,0,0,1.12-47.47,6.75-78.29,5.62-30.83,17.07-61.85,23.04-75.05,7.98-17.59,15.37-30.73,24.93-44.68.66-.97,1.74-2.61,2.15-4.23.2-2.84-2.26-3.74-2.26-3.74-14.26-7.91-24.34-16.69-31.44-25.29-15.63-18.92-16.92-37.04-16.92-43.34v-78.94c0-7.19,6.56-6.56,6.56-6.56h55.07c6.98,0,6.5,6.36,6.5,6.36v57.23c0,12.38,8.16,18.4,13.97,20.69,9.56,3.78,30.89,9.6,48.98,15.1,15.35,4.67,34.84,10.76,43.47,13.55,13.51,4.37,27.59,8.7,37.51,19.43,12.99,14.05,17.31,30.2,17.17,49.09v36.94c0,6.88-5.24,6.88-6.72,6.88-13.8,0-48.94,0-55.2,0-5.46,0-6.35-3.99-6.35-6.54v-30.47c-.5-9.88-.97-10.57-2.57-10.57-2.35,0-3.88,3.39-5.8,8.51-4.32,11.5-10.49,31.53-12.16,40.4,0,0-15.79,75.39,88.95,71.68,0,0,6.36.31,6.36,5.63v56.11s.63,6.58-6.56,6.56ZM370.86,403.69c-7.4,6.06-17.31,9.09-29.73,9.09-10.8,0-20.53-2.79-29.22-8.37l7.58-18.4c8.11,5.69,16.08,8.53,23.93,8.53,12.06,0,18.09-4.21,18.09-12.64,0-3.95-1.42-7.71-4.26-11.29-2.84-3.58-8.7-7.59-17.57-12.05-8.88-4.45-14.85-8.11-17.93-10.98-3.08-2.87-5.45-6.28-7.11-10.23-1.66-3.95-2.49-8.31-2.49-13.11,0-8.95,3.28-16.37,9.84-22.27,6.55-5.89,14.96-8.85,25.23-8.85,13.38,0,23.19,2.5,29.46,7.51l-6.24,17.69c-7.22-5.16-14.82-7.74-22.82-7.74-4.74,0-8.41,1.25-11.02,3.75-2.6,2.5-3.91,5.75-3.91,9.75,0,6.63,7.35,13.53,22.04,20.69,7.74,3.79,13.32,7.28,16.74,10.47,3.42,3.19,6.03,6.9,7.82,11.14,1.79,4.24,2.69,8.97,2.69,14.18,0,9.37-3.7,17.08-11.09,23.14ZM449.16,410.8l-24.88-38.3-9.48,10.03v28.27h-19.74v-116.1l19.74-4.74v68.71l28.2-32.46h23.77l-28.59,32.06,34.43,52.52h-23.45ZM505.06,410.8h-19.98v-68.39h-10.82v-16.19h30.8v84.58ZM503.36,312.99c-2.24,2.24-4.93,3.36-8.09,3.36s-5.86-1.12-8.09-3.36c-2.24-2.24-3.36-4.93-3.36-8.09s1.12-5.86,3.36-8.1c2.24-2.24,4.93-3.36,8.09-3.36s5.86,1.12,8.09,3.36c2.24,2.24,3.35,4.94,3.35,8.1s-1.12,5.86-3.35,8.09ZM540.99,412.38c-8.95,0-13.43-6.21-13.43-18.64v-99.04l19.74-4.74v95.09c0,10.42,3.1,16.64,9.32,18.64-3.06,5.79-8.27,8.69-15.64,8.69ZM584.8,412.38c-8.95,0-13.43-6.21-13.43-18.64v-99.04l19.74-4.74v95.09c0,10.42,3.11,16.64,9.32,18.64-3.05,5.79-8.26,8.69-15.64,8.69ZM651.53,373.21h-41.78v-18.56h41.78v18.56ZM732.55,400.02c-7.64,8.24-17.98,12.36-31.04,12.36-7.85,0-14.58-2.08-20.22-6.24l-4.42,6.24h-11.13v-117.68l19.74-4.74v39.49c5.26-3.21,11-4.81,17.22-4.81,12.37,0,22.35,3.91,29.93,11.73,7.58,7.82,11.37,17.84,11.37,30.05,0,14.17-3.82,25.37-11.45,33.61ZM822.37,400.46c-7.24,7.95-17.15,11.92-29.74,11.92s-22.83-4.01-29.97-12.04c-7.14-8.03-10.7-18.7-10.7-32.03s3.72-23.4,11.18-31.51c7.45-8.11,17.28-12.16,29.49-12.16,12.84,0,22.83,3.9,29.94,11.69,7.11,7.79,10.66,18.46,10.66,31.98s-3.62,24.2-10.85,32.15ZM899.48,410.8l-21.72-27.56-19.51,27.56h-23.38l32.46-43.28-29.85-41.3h22.66l17.85,25.82,19.9-25.82h22.51l-32.46,41.3,35.46,43.28h-23.93Z"/>
      </g>
    </g>
  </g>
</svg>